/* XPM */
static char * graphic_xpm[]  = {
    "48 44 2 1",
"  c black",
"  c white",
"            ........................            ",
"            ........................            ",
"            ........................            ",
"      ....................................      ",
"      ....................................      ",
"     ......................................     ",
"   .........   ..........                ....   ",
"   .........   ..........                ....   ",
"   .......       .......                  ...   ",
"   ......         ...             .             ",
"   ......         ....                     .    ",
"......   .........                  ............",
"......   .........          .       ............",
"......   .........                  ...   ......",
"...      ...   ...            .........   ......",
"...      ...   ...       .    .........   ......",
"......   .... ....            .........   ......",
"......   .........         ...............   ...",
"......   .........         ...............   ...",
".........         ...            ...............",
".........         ....           ...............",
".........         .....          ...............",
"............   ...   ......         ............",
"............   ...   ......         ............",
"............. ....   ......         ............",
"..................            ..................",
"..................            ..................",
"..................   ......    ..  .............",
"............         ......         ............",
"............         ......         ............",
"...............   ...      ...   ...............",
"...............   ...      ...   ...............",
"...............   ...      ...   ...............",
"   ............   ...      ...   ............   ",
"   ............   ...      ...   ............   ",
"   ............   ...      ...   ............   ",
"   .........         ......         .........   ",
"   .........         ......         .........   ",
"     .............   ......   .............     ",
"      ............            ............      ",
"      ............            ............      ",
"            ......   ......   ......            ",
"            ......   ......   ......            ",
"            ......   ......   ......            ",
};